<svg height="475pt" viewBox="-1 0 475 475.50544" width="475pt" xmlns="http://www.w3.org/2000/svg"><path d="m309.996094 178.652344c-.824219 0-1.671875-.125-2.488282-.390625-3.367187-1.078125-5.660156-4.214844-5.660156-7.757813v-98.625c0-27.570312 14.867188-53.199218 38.8125-66.878906l2.085938-1.199219c13.90625-7.914062 31.601562-3.066406 39.511718 10.796875.558594.976563 1.058594 1.972656 1.488282 2.992188 10.523437 24.542968 7.410156 53.320312-8.125 75.070312l-58.992188 82.582032c-1.558594 2.179687-4.050781 3.410156-6.632812 3.410156zm47.09375-162.359375c-2.117188 0-4.273438.53125-6.25 1.65625l-2.074219 1.195312c-18.890625 10.796875-30.617187 30.996094-30.617187 52.734375v73.191406l44.210937-61.882812c12.242187-17.148438 14.695313-39.835938 6.390625-59.207031-.207031-.476563-.417969-.90625-.660156-1.328125-2.324219-4.074219-6.597656-6.359375-11-6.359375zm0 0"/><path d="m301.847656 219.410156c-3.527344 0-6.648437-2.265625-7.746094-5.617187-1.105468-3.367188.097657-7.058594 2.96875-9.136719l79.882813-57.808594c22.328125-16.15625 51.820313-19.140625 76.925781-7.769531l2.21875 1.011719c14.527344 6.566406 21.007813 23.746094 14.433594 38.292968-.476562 1.039063-.980469 1.996094-1.535156 2.929688-13.75 22.960938-38.894532 37.3125-65.640625 37.472656l-101.460938.621094c-.015625.003906-.03125.003906-.046875.003906zm120.292969-70.871094c-12.59375 0-25.121094 3.90625-35.636719 11.515626l-59.269531 42.898437 76.023437-.46875c21.085938-.125 40.910157-11.445313 51.742188-29.535156.253906-.414063.484375-.867188.691406-1.324219 2.859375-6.3125.027344-13.8125-6.328125-16.6875l-2.21875-1.011719c-7.96875-3.609375-16.503906-5.386719-25.003906-5.386719zm0 0"/><path d="m294.164062 418.550781c-2.15625 0-4.28125-.859375-5.859374-2.484375-2.457032-2.546875-3-6.390625-1.328126-9.511718l46.527344-86.929688c13.023438-24.3125 38.226563-39.882812 65.78125-40.644531l2.429688-.074219c7.671875-.246094 15.09375 2.597656 20.710937 7.914062 5.613281 5.316407 8.828125 12.496094 9.042969 20.234376.03125 1.089843 0 2.207031-.101562 3.328124-2.308594 26.601563-18.636719 50.507813-42.605469 62.359376l-90.984375 44.964843c-1.152344.566407-2.386719.84375-3.613282.84375zm108.378907-123.347656c-.121094 0-.246094 0-.367188.007813l-2.425781.070312c-21.742188.597656-41.609375 12.871094-51.867188 32.03125l-34.53125 64.519531 68.183594-33.703125c18.898438-9.339844 31.769532-28.1875 33.59375-49.1875.039063-.492187.054688-.953125.039063-1.414062-.085938-3.398438-1.496094-6.542969-3.945313-8.859375-2.367187-2.246094-5.441406-3.464844-8.679687-3.464844zm0 0"/><path d="m415.550781 476c-12.347656 0-24.695312-2.929688-35.871093-8.8125l-89.78125-47.308594c-3.136719-1.65625-4.847657-5.140625-4.226563-8.628906.613281-3.484375 3.414063-6.183594 6.925781-6.660156l97.703125-13.304688c27.285157-3.730468 54.699219 7.5625 71.496094 29.429688l1.496094 1.964844c4.691406 6.097656 6.726562 13.699218 5.71875 21.367187-1.011719 7.664063-4.945313 14.476563-11.082031 19.191406-.851563.652344-1.757813 1.273438-2.707032 1.847657-12.109375 7.261718-25.886718 10.914062-39.671875 10.914062zm-95.554687-58.683594 67.277344 35.449219c18.652343 9.820313 41.472656 9.199219 59.535156-1.640625.398437-.238281.796875-.511719 1.179687-.804688 2.707031-2.078124 4.417969-5.046874 4.863281-8.398437.4375-3.34375-.453124-6.660156-2.507812-9.335937l-1.496094-1.964844c-13.222656-17.210938-34.816406-26.144532-56.351562-23.171875zm0 0"/><path d="m301.847656 219.410156c-2 0-3.980468-.734375-5.515625-2.152344l-72.550781-66.757812c-20.289062-18.664062-29.082031-46.957031-22.945312-73.839844l.539062-2.355468c3.570312-15.570313 19.144531-25.34375 34.683594-21.773438 1.066406.238281 2.128906.542969 3.171875.914062 25.203125 8.882813 44.277343 30.65625 49.777343 56.820313l20.816407 99.320313c.730469 3.464843-.867188 7.007812-3.949219 8.761718-1.257812.710938-2.644531 1.0625-4.027344 1.0625zm-72.242187-151.304687c-5.773438 0-10.996094 3.976562-12.339844 9.828125l-.53125 2.355468c-4.84375 21.195313 2.089844 43.5 18.085937 58.214844l53.828126 49.535156-15.59375-74.425781c-4.335938-20.625-19.375-37.792969-39.25-44.792969-.449219-.160156-.910157-.289062-1.371094-.398437-.945313-.214844-1.898438-.316406-2.828125-.316406zm0 0"/><path d="m81.765625 178.652344c-13.484375 0-24.453125-10.96875-24.453125-24.453125s10.96875-24.453125 24.453125-24.453125 24.453125 10.96875 24.453125 24.453125-10.96875 24.453125-24.453125 24.453125zm0-32.601563c-4.492187 0-8.152344 3.65625-8.152344 8.148438 0 4.496093 3.660157 8.152343 8.152344 8.152343s8.152344-3.65625 8.152344-8.152343c0-4.492188-3.660157-8.148438-8.152344-8.148438zm0 0"/><path d="m24.707031 194.957031c-13.484375 0-24.453125-10.96875-24.453125-24.453125s10.96875-24.453125 24.453125-24.453125 24.453125 10.96875 24.453125 24.453125-10.96875 24.453125-24.453125 24.453125zm0-32.605469c-4.492187 0-8.152343 3.65625-8.152343 8.152344 0 4.492188 3.660156 8.152344 8.152343 8.152344 4.496094 0 8.152344-3.660156 8.152344-8.152344 0-4.496094-3.65625-8.152344-8.152344-8.152344zm0 0"/><path d="m220.335938 203.105469c-13.484376 0-24.453126-10.96875-24.453126-24.453125s10.96875-24.453125 24.453126-24.453125c13.484374 0 24.453124 10.96875 24.453124 24.453125s-10.96875 24.453125-24.453124 24.453125zm0-32.601563c-4.492188 0-8.152344 3.65625-8.152344 8.148438 0 4.496094 3.660156 8.152344 8.152344 8.152344 4.492187 0 8.152343-3.65625 8.152343-8.152344-.003906-4.492188-3.660156-8.148438-8.152343-8.148438zm0 0"/><path d="m261.089844 252.019531c-13.484375 0-24.453125-10.972656-24.453125-24.457031s10.96875-24.457031 24.453125-24.457031 24.453125 10.972656 24.453125 24.457031c0 13.488281-10.96875 24.457031-24.453125 24.457031zm0-32.609375c-4.496094 0-8.148438 3.65625-8.148438 8.152344s3.652344 8.152344 8.148438 8.152344c4.5 0 8.152344-3.65625 8.152344-8.152344s-3.652344-8.152344-8.152344-8.152344zm0 0"/><path d="m204.03125 357.984375c-13.480469 0-24.453125-10.972656-24.453125-24.453125 0-13.484375 10.972656-24.453125 24.453125-24.453125 13.484375 0 24.453125 10.96875 24.453125 24.453125s-10.964844 24.453125-24.453125 24.453125zm0-32.605469c-4.492188 0-8.148438 3.652344-8.148438 8.152344 0 4.496094 3.65625 8.152344 8.148438 8.152344 4.496094 0 8.152344-3.65625 8.152344-8.152344 0-4.5-3.65625-8.152344-8.152344-8.152344zm0 0"/><path d="m146.976562 333.53125c-13.484374 0-24.457031-10.972656-24.457031-24.453125 0-13.484375 10.972657-24.457031 24.457031-24.457031 13.480469 0 24.453126 10.972656 24.453126 24.457031s-10.96875 24.453125-24.453126 24.453125zm0-32.605469c-4.496093 0-8.152343 3.652344-8.152343 8.152344 0 4.496094 3.65625 8.148437 8.152343 8.148437 4.492188 0 8.148438-3.652343 8.148438-8.148437 0-4.5-3.65625-8.152344-8.148438-8.152344zm0 0"/><path d="m106.21875 284.621094c-13.484375 0-24.453125-10.96875-24.453125-24.453125s10.96875-24.453125 24.453125-24.453125 24.453125 10.96875 24.453125 24.453125-10.96875 24.453125-24.453125 24.453125zm0-32.601563c-4.492188 0-8.152344 3.652344-8.152344 8.148438 0 4.5 3.660156 8.152343 8.152344 8.152343 4.496094 0 8.152344-3.652343 8.152344-8.152343 0-4.496094-3.65625-8.148438-8.152344-8.148438zm0 0"/><path d="m155.125 178.652344c-13.484375 0-24.453125-10.96875-24.453125-24.453125s10.96875-24.453125 24.453125-24.453125 24.453125 10.96875 24.453125 24.453125-10.96875 24.453125-24.453125 24.453125zm0-32.601563c-4.492188 0-8.148438 3.65625-8.148438 8.148438 0 4.496093 3.65625 8.152343 8.148438 8.152343 4.496094 0 8.152344-3.65625 8.152344-8.152343 0-4.492188-3.65625-8.148438-8.152344-8.148438zm0 0"/><path d="m49.160156 243.867188c-13.484375 0-24.453125-10.972657-24.453125-24.457032s10.96875-24.453125 24.453125-24.453125 24.453125 10.96875 24.453125 24.453125-10.96875 24.457032-24.453125 24.457032zm0-32.609376c-4.492187 0-8.152344 3.660157-8.152344 8.152344 0 4.492188 3.660157 8.152344 8.152344 8.152344 4.496094 0 8.152344-3.660156 8.152344-8.152344 0-4.492187-3.65625-8.152344-8.152344-8.152344zm0 0"/><path d="m113.511719 247.511719-14.582031-7.289063c6.414062-12.835937 19.3125-20.8125 33.664062-20.8125h9.398438c-7.445313-16.25-8.429688-34.4375-2.75-51.484375l15.464843 5.152344c-4.5625 13.703125-3.523437 28.363281 2.941407 41.285156l4.769531 9.554688c1.261719 2.527343 1.125 5.527343-.359375 7.929687s-4.109375 3.863282-6.933594 3.863282h-22.53125c-8.132812 0-15.445312 4.519531-19.082031 11.800781zm0 0"/><path d="m153.789062 297.296875-13.5625-9.042969c11.71875-17.585937 31.335938-28.085937 52.476563-28.085937h8.175781l-4.234375-12.695313c-6.195312-18.601562-3.511719-38.621094 7.355469-54.933594l1.398438-2.101562 13.574218 9.035156-1.402344 2.105469c-8.0625 12.101563-10.054687 26.945313-5.460937 40.746094l7.808594 23.417969c.828125 2.484374.410156 5.21875-1.121094 7.347656-1.53125 2.125-3.992187 3.382812-6.613281 3.382812h-19.480469c-15.675781 0-30.222656 7.785156-38.914063 20.824219zm0 0"/><path d="m211.324219 320.875-14.582031-7.292969c6.128906-12.257812 18.171874-20.085937 31.742187-20.757812v-20.425781c.003906-10.070313 3.921875-19.519532 11.03125-26.628907l7.660156-7.65625 11.527344 11.523438-7.664063 7.660156c-4.027343 4.027344-6.246093 9.390625-6.25 15.109375v28.519531c0 4.503907-3.652343 8.152344-8.152343 8.152344h-6.226563c-8.136718 0-15.449218 4.519531-19.085937 11.796875zm0 0"/><path d="m69.984375 218.039062-9.042969-13.5625 19.273438-12.847656-6.183594-18.546875 15.464844-5.160156 8.152344 24.457031c1.164062 3.488282-.152344 7.320313-3.210938 9.359375zm0 0"/><path d="m301.847656 472.097656h-16.304687c0-36.8125-6.933594-72.816406-20.605469-107.015625l-11.183594-27.960937c-35.835937-61.152344-92.382812-107.707032-159.292968-131.121094l-56.144532-19.652344 5.386719-15.386718 56.148437 19.652343c70.75 24.757813 130.511719 74.0625 168.285157 138.808594.199219.351563.371093.707031.523437 1.082031l11.414063 28.527344c14.449219 36.125 21.773437 74.167969 21.773437 113.066406zm0 0"/><path d="m285.542969 472.355469-3.613281-116.726563c-3.054688-63.921875 4.324218-127.675781 21.9375-189.351562l6.449218-22.472656 15.664063 4.488281-6.4375 22.46875c-17.121094 59.960937-24.304688 121.941406-21.320313 184.222656l3.625 116.859375zm0 0"/><path d="m318.039062 171.84375-16.082031-2.683594 7.730469-46.328125c5.835938-35.046875 20.65625-68.242187 42.847656-95.988281l12.738282 10.179688c-20.464844 25.578124-34.125 56.175781-39.507813 88.488281zm0 0"/><path d="m305.492188 218.550781-7.289063-14.582031 30.476563-15.242188c34.515624-17.25 73.148437-26.371093 111.738281-26.375v16.300782c-36.066407.003906-72.183594 8.53125-104.445313 24.65625zm0 0"/><path d="m286.039062 205.894531-16.84375-46.328125c-9.910156-27.242187-25.980468-52.472656-46.472656-72.964844l11.527344-11.523437c22.167969 22.164063 39.546875 49.453125 50.257812 78.914063l16.84375 46.328124zm0 0"/><path d="m300.574219 419.410156-13.757813-8.738281 29.34375-46.167969c18.863282-29.636718 47.601563-52.058594 80.921875-63.164062l5.160157 15.472656c-29.789063 9.910156-55.476563 29.960938-72.328126 56.4375zm0 0"/><path d="m428.621094 446.785156c-30.855469-15.433594-65.394532-23.59375-99.894532-23.59375-.015624 0-.03125 0-.046874 0h-18.683594v-16.300781h18.683594.054687c37.007813 0 74.070313 8.757813 107.175781 25.3125zm0 0"/></svg>