<?xml version="1.0" encoding="UTF-8"?>
<svg xmlns="http://www.w3.org/2000/svg" id="outline" viewBox="0 0 512 512" width="80" height="80"><path d="M435.2002,302.3999a7.9998,7.9998,0,1,0,9.5996-12.7998l-10.24-7.67993.24-.32007A25.99988,25.99988,0,0,0,414,240H394.21619l3.2-8H416a7.99977,7.99977,0,0,0,8-8V208a24.02687,24.02687,0,0,0-24-24H372.64258l-6.4917-11.36084a42.43035,42.43035,0,0,1-3.28174-7.24023l-15.13086,5.20214a58.494,58.494,0,0,0,4.521,9.97705L354.21466,184H308.64252l-6.49164-11.36035a42.34743,42.34743,0,0,1,3.96924-47.5708l-12.37793-10.1377a58.437,58.437,0,0,0-5.48291,65.647L290.21466,184H244.64252l-6.49164-11.36035a42.23622,42.23622,0,0,1,13.20264-55.92725A58.16651,58.16651,0,0,0,275.43359,54.022L259.93066,57.978a42.147,42.147,0,0,1-17.45214,45.42187A58.09185,58.09185,0,0,0,217.087,144.87012,47.97972,47.97972,0,0,0,160.67938,184H112a24.02687,24.02687,0,0,0-24,24v16a7.99977,7.99977,0,0,0,8,8h18.5838l3.2,8H98a25.99951,25.99951,0,0,0-20.7998,41.59961l.24023.32031L67.2002,289.6001a7.9998,7.9998,0,1,0,9.5996,12.7998l10.2403-7.68017,9.16248,12.21679a107.689,107.689,0,0,0,31.73547,124.92969l-7.85748,55.00244A7.9999,7.9999,0,0,0,128,496h24a7.99877,7.99877,0,0,0,5.65674-2.34326l37.66345-37.66345c.17682.00085.35242.00671.52942.00671H211.6217l23.24012,36.3125A8.00077,8.00077,0,0,0,241.6001,496h28.7998a8.00077,8.00077,0,0,0,6.73828-3.6875L300.3783,456h15.77209q4.15045,0,8.22492-.31128l37.96795,37.968A7.99877,7.99877,0,0,0,368,496h24a7.99943,7.99943,0,0,0,7.938-8.99219l-7.8-62.3999a107.6582,107.6582,0,0,0,23.65942-117.67139l9.1626-12.21679ZM208,160a31.88974,31.88974,0,0,1,9.44916,1.42065,57.578,57.578,0,0,0,6.81012,19.15747L226.21466,184H177.01257A32.05717,32.05717,0,0,1,208,160ZM104,208a8.00917,8.00917,0,0,1,8-8H400a8.00917,8.00917,0,0,1,8,8v8H104Zm-4.1601,77.11987,8.9599-6.72a7.9998,7.9998,0,1,0-9.5996-12.7998l-8.95984,6.72L90,271.99951A9.99963,9.99963,0,0,1,98,256h26.18378l2.617,6.54248-13.80371,16.56445a107.40977,107.40977,0,0,0-8.66058,12.00843ZM148.686,480H137.22412l5.43652-38.05688a107.10179,107.10179,0,0,0,32.10151,11.98107ZM266.022,480H245.978l-20.791-32.48584L244.94434,408h22.11132L286.813,447.51416Zm116.91552,0H371.314l-27.581-27.58057a107.41179,107.41179,0,0,0,33.8017-15.64514Zm-66.7871-40h-15.2063l-21.78882-43.57764A7.99924,7.99924,0,0,0,272,392H240a7.99924,7.99924,0,0,0-7.15527,4.42236L211.05591,440h-15.2063a91.84908,91.84908,0,0,1-70.56055-150.6499L142.146,269.12158a8.00075,8.00075,0,0,0,1.28173-8.09277L131.81622,232H380.18378l-11.61151,29.02881a8.00075,8.00075,0,0,0,1.28173,8.09277l16.85694,20.22852A91.84908,91.84908,0,0,1,316.15039,440Zm91.51318-148.88452a107.40829,107.40829,0,0,0-8.66064-12.00855l-13.80371-16.56445L387.81622,256H414a10,10,0,0,1,8,16l-.24011.32007-8.96009-6.72a7.9998,7.9998,0,0,0-9.5996,12.7998l8.96,6.72Z"/><rect x="250.99988" y="23.456" width="16.00023" height="17.08801" transform="translate(5.25479 92.97844) rotate(-20.55605)"/><path d="M370.47852,103.3999a57.99543,57.99543,0,0,0-25.88086,48.63428l16-.06836a42.03768,42.03768,0,0,1,18.75586-35.25342A57.8672,57.8672,0,0,0,401.5293,47.96045L391.49072,21.19092l-14.98144,5.61816,10.03857,26.76953A41.93382,41.93382,0,0,1,370.47852,103.3999Z"/><path d="M306.478,103.3999l8.876,13.3125a58.23116,58.23116,0,0,0,10.53321-9.00146h0A57.82144,57.82144,0,0,0,337.5293,47.96045L327.49072,21.19092l-14.98144,5.61816,10.03857,26.76953a41.8968,41.8968,0,0,1-8.43359,43.29688l5.88623,5.418L314.11377,96.876A42.20526,42.20526,0,0,1,306.478,103.3999Z"/><path d="M104,128a32,32,0,1,0,32-32A32.036,32.036,0,0,0,104,128Zm48,0a16,16,0,1,1-16-16A16.01833,16.01833,0,0,1,152,128Z"/><path d="M192,112a24,24,0,1,0-24-24A24.02687,24.02687,0,0,0,192,112Zm0-32a8,8,0,1,1-8,8A8.00917,8.00917,0,0,1,192,80Z"/><circle cx="152" cy="56" r="8"/></svg>
