<svg id="Capa_1" enable-background="new 0 0 512 512" height="512" viewBox="0 0 512 512" width="512" xmlns="http://www.w3.org/2000/svg"><g><path d="m503.954 38.416c-5.783-13.561-16.201-24.723-29.325-31.424-15.038-7.707-32.178-9.095-48.265-3.907-16.088 5.188-29.184 16.328-36.872 31.362-8.732 17.036-9.218 37.018-1.561 54.373l-104.6 140.165h-65.348c18.957-15.077 31.63-33.239 39.205-55.862 9.035-26.985 9.901-57.245 8.422-94.378-.116-2.918-1.902-5.509-4.588-6.657-2.685-1.147-5.792-.646-7.981 1.287-30.784 27.194-38.922 33.331-63.081 42.618-3.9 1.499-5.847 5.876-4.347 9.776 1.499 3.901 5.875 5.846 9.776 4.347 23.525-9.043 34.206-16.305 55.558-34.782 1.019 64.909-9.902 104.654-59.896 133.65h-35.018l-.815-8.26 37.458-40.959c2.82-3.083 2.606-7.869-.477-10.689-3.083-2.819-7.868-2.607-10.689.477l-29.72 32.498c-4.083-12.643-11.812-23.859-22.829-33.264 8.023-10.461 19.462-19.28 34.123-26.261 3.773-1.796 5.375-6.311 3.578-10.083-1.796-3.773-6.312-5.376-10.083-3.578-17.001 8.094-30.369 18.517-39.869 31.034-7.371-4.547-15.727-8.491-25.014-11.759-35.238-12.394-39.251-14.827-71.575-43.392-2.188-1.934-5.295-2.436-7.982-1.288-2.686 1.147-4.472 3.739-4.588 6.658-1.746 43.973-.722 86.169 27.171 118.869h-19.411c-6.813 0-12.355 5.542-12.355 12.355v11.59c0 19.599 2.379 39.078 7.005 57.999.074.605 14.279 44.219 25.452 63.668 19.859 34.572 48.046 64.044 81.659 85.513v38.458c0 7.407 6.026 13.432 13.432 13.432h236.138c7.422 0 13.46-6.026 13.46-13.432v-38.46c33.613-21.469 61.8-50.941 81.659-85.513 11.172-19.45 25.378-63.063 25.452-63.668 4.626-18.921 7.005-38.4 7.005-57.999v-11.59c0-6.813-5.542-12.355-12.355-12.355h-55.734l32.746-103.775c18.576-3.94 34.511-16.025 43.239-33.053.677-1.323 1.3-2.666 1.852-3.992 6.775-15.813 6.769-33.948-.012-49.749zm-481.717 88.269c23.678 20.301 32.27 24.414 64.439 35.728 10.523 3.703 19.618 8.352 27.18 13.804.258.212.528.415.82.596.015.009.031.015.046.024 14.751 10.926 23.421 25.007 25.029 41.214l1.079 10.933h-22.283l-42.311-33.558c-3.275-2.597-8.032-2.048-10.629 1.226s-2.048 8.033 1.226 10.629l27.364 21.703h-38.222c-27.76-24.167-34.33-55.526-33.738-102.299zm342.733 370.183h-232.766v-33.327h232.766zm114.116-252.751v8.813c0 16.888-1.822 33.462-5.328 49.507l-208.564-.027c-4.178 0-7.566 3.387-7.566 7.565s3.386 7.566 7.565 7.567l204.718.027c-15.59 53.524-50.411 100.051-99.558 130.841h-243.53c-49.148-30.79-83.969-77.317-99.558-130.841l203.329-.027c4.178 0 7.565-3.388 7.565-7.567-.001-4.178-3.388-7.565-7.567-7.565l-207.176.027c-3.506-16.045-5.328-32.619-5.328-49.507v-8.813zm-68.824-15.132h-108.049l94.158-126.173c5.546 6.957 12.517 12.674 20.578 16.803 8.051 4.124 16.76 6.436 25.653 6.882zm79.781-146.746c-.012.029-.025.058-.037.088-.401.968-.859 1.955-1.359 2.932-7.211 14.069-20.893 23.711-36.585 25.79-9.717 1.27-19.474-.423-28.214-4.9-8.752-4.483-15.821-11.415-20.446-20.056-7.491-13.941-7.656-30.667-.438-44.749 5.849-11.438 15.809-19.91 28.046-23.856 4.865-1.569 9.855-2.347 14.823-2.347 7.53 0 15.008 1.789 21.906 5.324 9.983 5.097 17.902 13.581 22.304 23.903 5.241 12.214 5.241 25.664 0 37.871z"/></g></svg>