<svg height="512pt" viewBox="0 -88 512 512" width="512pt" xmlns="http://www.w3.org/2000/svg"><path d="m496.722656 305.265625-5.339844.332031v-50.511718c0-8.4375-6.84375-15.277344-15.28125-15.277344h-115.335937l106.378906-31.546875c8.089844-2.398438 12.703125-10.902344 10.300781-18.992188-2.398437-8.089843-10.898437-12.703125-18.992187-10.304687l-113.972656 33.800781 88.636719-60.597656c6.964843-4.765625 8.75-14.269531 3.988281-21.238281-4.761719-6.964844-14.269531-8.75-21.234375-3.988282l-160.363282 109.636719-160.359374-109.636719c-6.96875-4.761718-16.472657-2.976562-21.238282 3.988282-4.761718 6.96875-2.976562 16.472656 3.992188 21.238281l88.632812 60.597656-113.972656-33.800781c-8.089844-2.398438-16.589844 2.214844-18.992188 10.304687-2.398437 8.089844 2.214844 16.59375 10.304688 18.992188l106.375 31.546875h-115.335938c-8.4375 0-15.277343 6.84375-15.277343 15.28125v50.492187l-4.359375-.316406c-8.4375 0-15.277344 6.84375-15.277344 15.28125s6.839844 15.277344 15.277344 15.277344h182.300781c23.554687 0 44.53125-11.191407 57.929687-28.523438 13.402344 17.332031 34.378907 28.523438 57.933594 28.523438h183.28125c8.4375 0 15.277344-6.839844 15.277344-15.277344s-6.839844-15.28125-15.277344-15.28125zm-299.144531 0h-147.382813v-34.898437h189.328126c-3.65625 19.832031-21.070313 34.898437-41.945313 34.898437zm73.914063-34.898437h189.332031v34.898437h-147.382813c-20.875 0-38.292968-15.066406-41.949218-34.898437zm0 0"/><path d="m283.824219 48.871094h3.035156v3.039062c0 8.4375 6.84375 15.28125 15.28125 15.28125s15.277344-6.84375 15.277344-15.28125v-3.039062h3.039062c8.4375 0 15.277344-6.839844 15.277344-15.277344s-6.839844-15.277344-15.277344-15.277344h-3.039062v-3.039062c0-8.4375-6.839844-15.277344-15.277344-15.277344s-15.28125 6.839844-15.28125 15.277344v3.039062h-3.035156c-8.4375 0-15.28125 6.839844-15.28125 15.277344s6.84375 15.277344 15.28125 15.277344zm0 0"/><path d="m237.402344 165.8125h3.039062v3.039062c0 8.4375 6.839844 15.277344 15.277344 15.277344s15.277344-6.839844 15.277344-15.277344v-3.039062h3.039062c8.4375 0 15.277344-6.839844 15.277344-15.277344s-6.839844-15.28125-15.277344-15.28125h-3.039062v-3.035156c0-8.4375-6.839844-15.28125-15.277344-15.28125s-15.277344 6.84375-15.277344 15.28125v3.035156h-3.039062c-8.4375 0-15.277344 6.84375-15.277344 15.28125s6.839844 15.277344 15.277344 15.277344zm0 0"/><path d="m329.0625 113.960938c.371094 8.277343 6.714844 15.277343 15.277344 15.277343 7.992187 0 15.648437-7.027343 15.28125-15.277343-.371094-8.277344-6.714844-15.277344-15.28125-15.277344-7.988282 0-15.648438 7.027344-15.277344 15.277344zm0 0"/><path d="m202.121094 75.996094c7.992187 0 15.648437-7.027344 15.277344-15.277344-.367188-8.277344-6.710938-15.277344-15.277344-15.277344-7.992188 0-15.648438 7.027344-15.277344 15.277344.371094 8.277344 6.710938 15.277344 15.277344 15.277344zm0 0"/></svg>